<svg width="135" height="29" viewBox="0 0 135 29" fill="none" xmlns="http://www.w3.org/2000/svg">
<path d="M0 28L11.64 -1.90735e-06H17.36L29 28H22.16L19.84 22.12H8.76L6.44 28H0ZM14.32 8.2L11.16 16.12H17.44L14.32 8.2ZM42.5844 28V16H39.4244L39.3444 16.8C39.0244 19.9467 38.531 22.36 37.8644 24.04C37.2244 25.6933 36.3177 26.8533 35.1444 27.52C33.9977 28.16 32.3844 28.48 30.3044 28.48L29.7844 22.64C30.771 22.7467 31.611 22.2533 32.3044 21.16C32.9977 20.04 33.411 18.1867 33.5444 15.6L33.8244 10H48.5844V28H42.5844ZM52.9813 28V10H58.3813L63.7813 16.12L68.7813 10H74.0213V28H68.0213V19.16L63.6613 24.16H63.5413L58.9813 19.16V28H52.9813ZM80.3309 15.64L78.8509 11.28C79.6243 10.8 80.6243 10.3867 81.8509 10.04C83.1043 9.69333 84.3309 9.52 85.5309 9.52C88.1976 9.52 90.1043 10.16 91.2509 11.44C92.4243 12.72 93.0109 14.6267 93.0109 17.16V28H87.8109V26.36C86.9309 27.6133 85.3576 28.24 83.0909 28.24C81.4109 28.24 80.0376 27.7467 78.9709 26.76C77.9309 25.7467 77.4109 24.3467 77.4109 22.56C77.4109 20.6133 78.0109 19.1333 79.2109 18.12C80.4376 17.1067 81.9976 16.6 83.8909 16.6C85.3843 16.6 86.5576 16.9333 87.4109 17.6C87.5176 15.5467 86.6909 14.52 84.9309 14.52C83.7576 14.52 82.2243 14.8933 80.3309 15.64ZM85.1309 23.24C86.1976 23.24 86.9576 22.9333 87.4109 22.32V21.2C86.8509 20.8 86.0909 20.6 85.1309 20.6C84.6243 20.6 84.2109 20.72 83.8909 20.96C83.5709 21.2 83.4109 21.5333 83.4109 21.96C83.4109 22.36 83.5709 22.68 83.8909 22.92C84.2109 23.1333 84.6243 23.24 85.1309 23.24ZM103.005 28H97.0047V10H103.005V19.4L109.405 10H115.405V28H109.405V18.6L103.005 28ZM118.417 16V10H134.817V16H129.617V28H123.617V16H118.417Z" fill="white"/>
</svg>
