<svg width="26" height="27" viewBox="0 0 26 27" fill="none" xmlns="http://www.w3.org/2000/svg">
<path d="M1.65485 25.3363L2.88532 19.6234C1.30381 17.129 0.686858 14.1431 1.15022 11.2261C1.61358 8.30911 3.12541 5.66143 5.40205 3.77981C7.6787 1.8982 10.5637 0.911976 13.5158 1.00618C16.4678 1.10037 19.2841 2.26852 21.4361 4.29145C23.5882 6.31439 24.9281 9.05307 25.2046 11.9937C25.481 14.9343 24.675 17.8747 22.9377 20.2633C21.2003 22.6519 18.6511 24.3244 15.7683 24.9672C12.8856 25.6099 9.86729 25.1786 7.27985 23.7543L1.65485 25.3363Z" fill="#25D366" stroke="white"/>
<path d="M17.9155 14.7896C17.6518 14.6139 17.3882 14.526 17.1245 14.8775L16.0698 16.2838C15.8061 16.4596 15.6304 16.5475 15.2788 16.3717C13.9604 15.6686 12.1147 14.8775 10.5327 12.2408C10.4448 11.8893 10.6206 11.7135 10.7964 11.5377L11.5874 10.3072C11.7632 10.1314 11.6753 9.95566 11.5874 9.77988L10.5327 7.23105C10.269 6.52793 10.0054 6.61582 9.74168 6.61582H9.03856C8.86278 6.61582 8.51121 6.70371 8.15965 7.05527C6.22606 8.98887 7.01707 11.7135 8.42332 13.4713C8.687 13.8229 10.4448 16.9869 14.2241 18.6568C17.0366 19.8873 17.6518 19.7115 18.4429 19.5357C19.4097 19.4479 20.3764 18.6568 20.8159 17.8658C20.9038 17.6021 21.3432 16.4596 20.9917 16.2838" fill="white"/>
</svg>
