<svg width="55" height="55" viewBox="0 0 55 55" fill="none" xmlns="http://www.w3.org/2000/svg">
<path d="M27.5 25.7256C21.1413 25.7256 15.9678 30.8991 15.9678 37.2578C15.9678 43.6166 21.1413 48.7901 27.5 48.7901C33.8587 48.7901 39.0323 43.6166 39.0323 37.2578C39.0323 30.8991 33.8587 25.7256 27.5 25.7256ZM27.5 47.0159C22.1198 47.0159 17.742 42.6381 17.742 37.2578C17.742 31.8776 22.1198 27.4998 27.5 27.4998C32.8803 27.4998 37.2581 31.8776 37.2581 37.2578C37.2581 42.6381 32.8803 47.0159 27.5 47.0159Z" fill="#D2D2D2"/>
<path d="M32.8223 0V20.334C31.1413 19.8044 29.3538 19.5161 27.4997 19.5161C17.7168 19.5161 9.75781 27.4752 9.75781 37.2581C9.75781 47.041 17.7168 55 27.4997 55H42.5804C44.0476 55 45.2417 53.806 45.2417 52.3387V37.2581V0H32.8223ZM43.4675 52.3387C43.4675 52.8275 43.0701 53.2258 42.5804 53.2258H27.4997C18.6953 53.2258 11.532 46.0625 11.532 37.2581C11.532 28.4536 18.6953 21.2903 27.4997 21.2903C36.3042 21.2903 43.4675 28.4536 43.4675 37.2581V52.3387ZM43.4675 10.6452H41.6933V12.4194H43.4675V15.9677H39.9191V17.7419H43.4675V21.2903H41.6933V23.0645H43.4675V29.5758C41.6277 25.7675 38.4802 22.7106 34.5965 21.0082V6.99831C35.7249 8.15242 37.2951 8.87097 39.032 8.87097C40.7689 8.87097 42.3391 8.15242 43.4675 6.99831V10.6452ZM43.4675 2.66129C43.4675 5.10702 41.4777 7.09677 39.032 7.09677C36.5863 7.09677 34.5965 5.10702 34.5965 2.66129V1.77419H43.4675V2.66129Z" fill="#D2D2D2"/>
<path d="M28.3865 36.3711H26.6123V38.1453H28.3865V36.3711Z" fill="#D2D2D2"/>
<path d="M31.9353 36.3711H30.1611V38.1453H31.9353V36.3711Z" fill="#D2D2D2"/>
<path d="M24.8386 36.3711H23.0645V38.1453H24.8386V36.3711Z" fill="#D2D2D2"/>
</svg>
