<svg width="53" height="53" viewBox="0 0 53 53" fill="none" xmlns="http://www.w3.org/2000/svg">
<path d="M35.3337 35.3333V13.6917C35.3337 11.2181 35.3337 9.98131 34.8522 9.03654C34.4289 8.20548 33.7532 7.52982 32.9222 7.10639C31.9774 6.625 30.7405 6.625 28.267 6.625H11.4837C9.0101 6.625 7.77331 6.625 6.82854 7.10639C5.99747 7.52982 5.32181 8.20548 4.89839 9.03654C4.41699 9.98131 4.41699 11.2181 4.41699 13.6917V28.2667C4.41699 30.7402 4.41699 31.9771 4.89839 32.9218C5.32181 33.7528 5.99747 34.4286 6.82854 34.8519C7.77331 35.3333 9.0101 35.3333 11.4837 35.3333H35.3337ZM35.3337 35.3333H45.0503C46.2872 35.3333 46.9055 35.3333 47.3779 35.0926C47.7935 34.8808 48.1312 34.5432 48.343 34.1276C48.5837 33.6552 48.5837 33.0369 48.5837 31.8V25.7551C48.5837 25.2152 48.5837 24.9451 48.5227 24.6909C48.4686 24.4655 48.3794 24.2501 48.2581 24.0525C48.1217 23.8297 47.9307 23.6387 47.5488 23.2568L42.9935 18.7016C42.6117 18.3196 42.4206 18.1286 42.1978 17.9921C42.0002 17.871 41.7849 17.7818 41.5594 17.7277C41.3052 17.6667 41.0351 17.6667 40.4952 17.6667H35.3337M19.8753 40.8542C19.8753 43.9032 17.4036 46.375 14.3545 46.375C11.3054 46.375 8.83366 43.9032 8.83366 40.8542C8.83366 37.8051 11.3054 35.3333 14.3545 35.3333C17.4036 35.3333 19.8753 37.8051 19.8753 40.8542ZM44.167 40.8542C44.167 43.9032 41.6952 46.375 38.6462 46.375C35.5971 46.375 33.1253 43.9032 33.1253 40.8542C33.1253 37.8051 35.5971 35.3333 38.6462 35.3333C41.6952 35.3333 44.167 37.8051 44.167 40.8542Z" stroke="#D2D2D2" stroke-width="2" stroke-linecap="round" stroke-linejoin="round"/>
</svg>
