<svg width="55" height="55" viewBox="0 0 55 55" fill="none" xmlns="http://www.w3.org/2000/svg">
<path d="M27.4766 20.6191C27.2394 20.6191 27.0469 20.8112 27.0469 21.0488C27.0469 22.7134 23.5935 24.4958 18.4531 24.4958C13.3128 24.4958 9.85938 22.7134 9.85938 21.0488C9.85938 20.8112 9.66688 20.6191 9.42969 20.6191C9.1925 20.6191 9 20.8112 9 21.0488C9 23.4637 13.1525 25.3552 18.4531 25.3552C23.7537 25.3552 27.9062 23.4632 27.9062 21.0488C27.9062 20.8112 27.7138 20.6191 27.4766 20.6191Z" fill="white"/>
<path d="M27.4766 23.1997C27.2394 23.1997 27.0469 23.3918 27.0469 23.6294C27.0469 25.294 23.5935 27.0763 18.4531 27.0763C13.3128 27.0763 9.85938 25.294 9.85938 23.6294C9.85938 23.3918 9.66688 23.1997 9.42969 23.1997C9.1925 23.1997 9 23.3918 9 23.6294C9 26.0442 13.1525 27.9357 18.4531 27.9357C23.7537 27.9357 27.9062 26.0438 27.9062 23.6294C27.9062 23.3918 27.7138 23.1997 27.4766 23.1997Z" fill="white"/>
<path d="M27.4766 25.7808C27.2394 25.7808 27.0469 25.9728 27.0469 26.2104C27.0469 27.8751 23.5935 29.6574 18.4531 29.6574C13.3128 29.6574 9.85938 27.8751 9.85938 26.2104C9.85938 25.9728 9.66688 25.7808 9.42969 25.7808C9.1925 25.7808 9 25.9728 9 26.2104C9 28.6253 13.1525 30.5168 18.4531 30.5168C23.7537 30.5168 27.9062 28.6249 27.9062 26.2104C27.9062 25.9728 27.7138 25.7808 27.4766 25.7808Z" fill="white"/>
<path d="M27.4766 15.4536C27.2394 15.4536 27.0469 15.6457 27.0469 15.8833C27.0469 17.5479 23.5935 19.3303 18.4531 19.3303C13.3128 19.3303 9.85938 17.5479 9.85938 15.8833C9.85938 15.6457 9.66688 15.4536 9.42969 15.4536C9.1925 15.4536 9 15.6457 9 15.8833C9 18.2981 13.1525 20.1896 18.4531 20.1896C23.7537 20.1896 27.9062 18.2981 27.9062 15.8833C27.9062 15.6457 27.7138 15.4536 27.4766 15.4536Z" fill="white"/>
<path d="M27.4766 18.0342C27.2394 18.0342 27.0469 18.2263 27.0469 18.4639C27.0469 20.1285 23.5935 21.9108 18.4531 21.9108C13.3128 21.9108 9.85938 20.1285 9.85938 18.4639C9.85938 18.2263 9.66688 18.0342 9.42969 18.0342C9.1925 18.0342 9 18.2263 9 18.4639C9 20.8787 13.1525 22.7702 18.4531 22.7702C23.7537 22.7702 27.9062 20.8787 27.9062 18.4639C27.9062 18.2263 27.7138 18.0342 27.4766 18.0342Z" fill="white"/>
<path d="M27.4766 28.3608C27.2394 28.3608 27.0469 28.5529 27.0469 28.7905C27.0469 30.4551 23.5935 32.2375 18.4531 32.2375C13.3128 32.2375 9.85938 30.4551 9.85938 28.7905C9.85938 28.5529 9.66688 28.3608 9.42969 28.3608C9.1925 28.3608 9 28.5529 9 28.7905C9 31.2054 13.1525 33.0969 18.4531 33.0969C23.7537 33.0969 27.9062 31.2054 27.9062 28.7905C27.9062 28.5529 27.7138 28.3608 27.4766 28.3608Z" fill="white"/>
<path d="M27.4766 30.9414C27.2394 30.9414 27.0469 31.1335 27.0469 31.3711C27.0469 33.0357 23.5935 34.818 18.4531 34.818C13.3128 34.818 9.85938 33.0357 9.85938 31.3711C9.85938 31.1335 9.66688 30.9414 9.42969 30.9414C9.1925 30.9414 9 31.1335 9 31.3711C9 33.7859 13.1525 35.6774 18.4531 35.6774C23.7537 35.6774 27.9062 33.7859 27.9062 31.3711C27.9062 31.1335 27.7138 30.9414 27.4766 30.9414Z" fill="white"/>
<path d="M27.4766 33.5225C27.2394 33.5225 27.0469 33.7145 27.0469 33.9521C27.0469 35.6168 23.5935 37.3987 18.4531 37.3987C13.3128 37.3987 9.85938 35.6168 9.85938 33.9521C9.85938 33.7145 9.66688 33.5225 9.42969 33.5225C9.1925 33.5225 9 33.7145 9 33.9521C9 36.3666 13.1525 38.258 18.4531 38.258C23.7537 38.258 27.9062 36.3666 27.9062 33.9521C27.9062 33.7145 27.7138 33.5225 27.4766 33.5225Z" fill="white"/>
<path d="M27.4766 36.103C27.2394 36.103 27.0469 36.2951 27.0469 36.5327C27.0469 38.1973 23.5935 39.9792 18.4531 39.9792C13.3128 39.9792 9.85938 38.1973 9.85938 36.5327C9.85938 36.2951 9.66688 36.103 9.42969 36.103C9.1925 36.103 9 36.2951 9 36.5327C9 38.9471 13.1525 40.8386 18.4531 40.8386C23.7537 40.8386 27.9062 38.9471 27.9062 36.5327C27.9062 36.2951 27.7138 36.103 27.4766 36.103Z" fill="white"/>
<path d="M27.4766 38.6836C27.2394 38.6836 27.0469 38.8757 27.0469 39.1133C27.0469 40.7779 23.5935 42.5598 18.4531 42.5598C13.3128 42.5598 9.85938 40.7779 9.85938 39.1133C9.85938 38.8757 9.66688 38.6836 9.42969 38.6836C9.1925 38.6836 9 38.8757 9 39.1133C9 41.5277 13.1525 43.4192 18.4531 43.4192C23.7537 43.4192 27.9062 41.5273 27.9062 39.1133C27.9062 38.8757 27.7138 38.6836 27.4766 38.6836Z" fill="white"/>
<path d="M27.4766 41.2642C27.2394 41.2642 27.0469 41.4562 27.0469 41.6938C27.0469 43.3585 23.5935 45.1408 18.4531 45.1408C13.3128 45.1408 9.85938 43.3585 9.85938 41.6938C9.85938 41.4562 9.66688 41.2642 9.42969 41.2642C9.1925 41.2642 9 41.4562 9 41.6938C9 44.1087 13.1525 46.0002 18.4531 46.0002C23.7537 46.0002 27.9062 44.1083 27.9062 41.6938C27.9062 41.4562 27.7138 41.2642 27.4766 41.2642Z" fill="white"/>
<path d="M45.4766 21.4531C45.2394 21.4531 45.0469 21.6452 45.0469 21.8828C45.0469 23.5474 41.5935 25.3298 36.4531 25.3298C31.3128 25.3298 27.8594 23.5474 27.8594 21.8828C27.8594 21.6452 27.6669 21.4531 27.4297 21.4531C27.1925 21.4531 27 21.6452 27 21.8828C27 24.2977 31.1525 26.1891 36.4531 26.1891C41.7537 26.1891 45.9062 24.2972 45.9062 21.8828C45.9062 21.6452 45.7138 21.4531 45.4766 21.4531Z" fill="white"/>
<path d="M45.4766 24.0342C45.2394 24.0342 45.0469 24.2263 45.0469 24.4639C45.0469 26.1285 41.5935 27.9108 36.4531 27.9108C31.3128 27.9108 27.8594 26.1285 27.8594 24.4639C27.8594 24.2263 27.6669 24.0342 27.4297 24.0342C27.1925 24.0342 27 24.2263 27 24.4639C27 26.8787 31.1525 28.7702 36.4531 28.7702C41.7537 28.7702 45.9062 26.8783 45.9062 24.4639C45.9062 24.2263 45.7138 24.0342 45.4766 24.0342Z" fill="white"/>
<path d="M45.4766 26.6143C45.2394 26.6143 45.0469 26.8063 45.0469 27.0439C45.0469 28.7086 41.5935 30.4909 36.4531 30.4909C31.3128 30.4909 27.8594 28.7086 27.8594 27.0439C27.8594 26.8063 27.6669 26.6143 27.4297 26.6143C27.1925 26.6143 27 26.8063 27 27.0439C27 29.4588 31.1525 31.3503 36.4531 31.3503C41.7537 31.3503 45.9062 29.4588 45.9062 27.0439C45.9062 26.8063 45.7138 26.6143 45.4766 26.6143Z" fill="white"/>
<path d="M45.4766 29.1948C45.2394 29.1948 45.0469 29.3869 45.0469 29.6245C45.0469 31.2891 41.5935 33.0715 36.4531 33.0715C31.3128 33.0715 27.8594 31.2891 27.8594 29.6245C27.8594 29.3869 27.6669 29.1948 27.4297 29.1948C27.1925 29.1948 27 29.3869 27 29.6245C27 32.0394 31.1525 33.9308 36.4531 33.9308C41.7537 33.9308 45.9062 32.0394 45.9062 29.6245C45.9062 29.3869 45.7138 29.1948 45.4766 29.1948Z" fill="white"/>
<path d="M45.4766 31.7759C45.2394 31.7759 45.0469 31.9679 45.0469 32.2056C45.0469 33.8702 41.5935 35.6521 36.4531 35.6521C31.3128 35.6521 27.8594 33.8702 27.8594 32.2056C27.8594 31.9679 27.6669 31.7759 27.4297 31.7759C27.1925 31.7759 27 31.9679 27 32.2056C27 34.62 31.1525 36.5115 36.4531 36.5115C41.7537 36.5115 45.9062 34.62 45.9062 32.2056C45.9062 31.9679 45.7138 31.7759 45.4766 31.7759Z" fill="white"/>
<path d="M45.4766 34.3564C45.2394 34.3564 45.0469 34.5485 45.0469 34.7861C45.0469 36.4507 41.5935 38.2327 36.4531 38.2327C31.3128 38.2327 27.8594 36.4507 27.8594 34.7861C27.8594 34.5485 27.6669 34.3564 27.4297 34.3564C27.1925 34.3564 27 34.5485 27 34.7861C27 37.2005 31.1525 39.092 36.4531 39.092C41.7537 39.092 45.9062 37.2005 45.9062 34.7861C45.9062 34.5485 45.7138 34.3564 45.4766 34.3564Z" fill="white"/>
<path d="M45.4766 36.937C45.2394 36.937 45.0469 37.1291 45.0469 37.3667C45.0469 39.0313 41.5935 40.8132 36.4531 40.8132C31.3128 40.8132 27.8594 39.0313 27.8594 37.3667C27.8594 37.1291 27.6669 36.937 27.4297 36.937C27.1925 36.937 27 37.1291 27 37.3667C27 39.7811 31.1525 41.6726 36.4531 41.6726C41.7537 41.6726 45.9062 39.7807 45.9062 37.3667C45.9062 37.1291 45.7138 36.937 45.4766 36.937Z" fill="white"/>
<path d="M45.4766 39.5176C45.2394 39.5176 45.0469 39.7096 45.0469 39.9473C45.0469 41.6119 41.5935 43.3942 36.4531 43.3942C31.3128 43.3942 27.8594 41.6119 27.8594 39.9473C27.8594 39.7096 27.6669 39.5176 27.4297 39.5176C27.1925 39.5176 27 39.7096 27 39.9473C27 42.3621 31.1525 44.2536 36.4531 44.2536C41.7537 44.2536 45.9062 42.3617 45.9062 39.9473C45.9062 39.7096 45.7138 39.5176 45.4766 39.5176Z" fill="white"/>
<path d="M36.4531 15C31.1525 15 27 16.8915 27 19.3063C27 21.7212 31.1525 23.6127 36.4531 23.6127C41.7537 23.6127 45.9062 21.7212 45.9062 19.3063C45.9062 16.8915 41.7537 15 36.4531 15ZM36.4531 22.7529C31.3128 22.7529 27.8594 20.9705 27.8594 19.3059C27.8594 17.6413 31.3128 15.8589 36.4531 15.8589C41.5935 15.8589 45.0469 17.6413 45.0469 19.3059C45.0469 20.9705 41.5935 22.7529 36.4531 22.7529Z" fill="white"/>
<path d="M18.4531 9C13.1525 9 9 10.8915 9 13.3068C9 15.7212 13.1525 17.6127 18.4531 17.6127C23.7537 17.6127 27.9062 15.7212 27.9062 13.3068C27.9062 10.8915 23.7537 9 18.4531 9ZM18.4531 16.7529C13.3128 16.7529 9.85938 14.9709 9.85938 13.3063C9.85938 11.6413 13.3128 9.85895 18.4531 9.85895C23.5935 9.85895 27.0469 11.6417 27.0469 13.3063C27.0469 14.9709 23.5935 16.7529 18.4531 16.7529Z" fill="white"/>
</svg>
