<svg width="100" height="100" viewBox="0 0 100 100" fill="none" xmlns="http://www.w3.org/2000/svg">
<path d="M50 46.7734C38.4387 46.7734 29.0322 56.1799 29.0322 67.7412C29.0322 79.3025 38.4387 88.7089 50 88.7089C61.5613 88.7089 70.9677 79.3025 70.9677 67.7412C70.9677 56.1799 61.5613 46.7734 50 46.7734ZM50 85.4831C40.2177 85.4831 32.258 77.5234 32.258 67.7412C32.258 57.9589 40.2177 49.9992 50 49.9992C59.7822 49.9992 67.7419 57.9589 67.7419 67.7412C67.7419 77.5234 59.7822 85.4831 50 85.4831Z" fill="white"/>
<path d="M59.6767 0V36.971C56.6202 36.0081 53.3702 35.4839 49.9993 35.4839C32.2122 35.4839 17.7412 49.9548 17.7412 67.7419C17.7412 85.529 32.2122 100 49.9993 100H77.4186C80.0864 100 82.2573 97.829 82.2573 95.1613V67.7419V0H59.6767ZM79.0315 95.1613C79.0315 96.05 78.309 96.7742 77.4186 96.7742H49.9993C33.9912 96.7742 20.967 83.75 20.967 67.7419C20.967 51.7339 33.9912 38.7097 49.9993 38.7097C66.0073 38.7097 79.0315 51.7339 79.0315 67.7419V95.1613ZM79.0315 19.3548H75.8057V22.5806H79.0315V29.0323H72.5799V32.2581H79.0315V38.7097H75.8057V41.9355H79.0315V53.7742C75.6864 46.85 69.9638 41.2919 62.9025 38.1968V12.7242C64.9541 14.8226 67.809 16.129 70.967 16.129C74.1251 16.129 76.9799 14.8226 79.0315 12.7242V19.3548ZM79.0315 4.83871C79.0315 9.28548 75.4138 12.9032 70.967 12.9032C66.5202 12.9032 62.9025 9.28548 62.9025 4.83871V3.22581H79.0315V4.83871Z" fill="white"/>
<path d="M51.6115 66.1289H48.3857V69.3547H51.6115V66.1289Z" fill="white"/>
<path d="M58.0637 66.1289H54.8379V69.3547H58.0637V66.1289Z" fill="white"/>
<path d="M45.1604 66.1289H41.9346V69.3547H45.1604V66.1289Z" fill="white"/>
</svg>
