<svg width="100" height="100" viewBox="0 0 100 100" fill="none" xmlns="http://www.w3.org/2000/svg">
<path d="M66.6673 66.6667V25.8333C66.6673 21.1662 66.6673 18.8327 65.759 17.0501C64.9602 15.482 63.6852 14.2072 62.1173 13.4083C60.3348 12.5 58.0011 12.5 53.334 12.5H21.6673C17.0002 12.5 14.6667 12.5 12.8841 13.4083C11.316 14.2072 10.0412 15.482 9.24228 17.0501C8.33398 18.8327 8.33398 21.1662 8.33398 25.8333V53.3333C8.33398 58.0004 8.33398 60.3342 9.24228 62.1167C10.0412 63.6846 11.316 64.9596 12.8841 65.7583C14.6667 66.6667 17.0002 66.6667 21.6673 66.6667H66.6673ZM66.6673 66.6667H85.0006C87.3344 66.6667 88.5011 66.6667 89.3923 66.2125C90.1765 65.8129 90.8136 65.1758 91.2132 64.3917C91.6673 63.5004 91.6673 62.3337 91.6673 60V48.5946C91.6673 47.5758 91.6673 47.0663 91.5523 46.5867C91.4502 46.1613 91.2819 45.755 91.0531 45.3821C90.7956 44.9617 90.4352 44.6012 89.7148 43.8808L81.1198 35.286C80.3994 34.5653 80.039 34.205 79.6186 33.9473C79.2456 33.7189 78.8394 33.5505 78.414 33.4485C77.9344 33.3333 77.4248 33.3333 76.4061 33.3333H66.6673M37.5006 77.0833C37.5006 82.8362 32.8369 87.5 27.084 87.5C21.331 87.5 16.6673 82.8362 16.6673 77.0833C16.6673 71.3304 21.331 66.6667 27.084 66.6667C32.8369 66.6667 37.5006 71.3304 37.5006 77.0833ZM83.334 77.0833C83.334 82.8362 78.6702 87.5 72.9173 87.5C67.1644 87.5 62.5006 82.8362 62.5006 77.0833C62.5006 71.3304 67.1644 66.6667 72.9173 66.6667C78.6702 66.6667 83.334 71.3304 83.334 77.0833Z" stroke="white" stroke-width="4" stroke-linecap="round" stroke-linejoin="round"/>
</svg>
