<svg width="100" height="100" viewBox="0 0 100 100" fill="none" xmlns="http://www.w3.org/2000/svg">
<path d="M49.957 37.4893C49.5258 37.4893 49.1758 37.8385 49.1758 38.2705C49.1758 41.2971 42.8969 44.5377 33.5508 44.5377C24.2047 44.5377 17.9258 41.2971 17.9258 38.2705C17.9258 37.8385 17.5758 37.4893 17.1445 37.4893C16.7133 37.4893 16.3633 37.8385 16.3633 38.2705C16.3633 42.6611 23.9133 46.1002 33.5508 46.1002C43.1883 46.1002 50.7383 42.6604 50.7383 38.2705C50.7383 37.8385 50.3883 37.4893 49.957 37.4893Z" fill="white"/>
<path d="M49.957 42.1816C49.5258 42.1816 49.1758 42.5309 49.1758 42.9629C49.1758 45.9895 42.8969 49.2301 33.5508 49.2301C24.2047 49.2301 17.9258 45.9895 17.9258 42.9629C17.9258 42.5309 17.5758 42.1816 17.1445 42.1816C16.7133 42.1816 16.3633 42.5309 16.3633 42.9629C16.3633 47.3535 23.9133 50.7926 33.5508 50.7926C43.1883 50.7926 50.7383 47.3527 50.7383 42.9629C50.7383 42.5309 50.3883 42.1816 49.957 42.1816Z" fill="white"/>
<path d="M49.957 46.874C49.5258 46.874 49.1758 47.2232 49.1758 47.6553C49.1758 50.6818 42.8969 53.9225 33.5508 53.9225C24.2047 53.9225 17.9258 50.6818 17.9258 47.6553C17.9258 47.2232 17.5758 46.874 17.1445 46.874C16.7133 46.874 16.3633 47.2232 16.3633 47.6553C16.3633 52.0459 23.9133 55.485 33.5508 55.485C43.1883 55.485 50.7383 52.0451 50.7383 47.6553C50.7383 47.2232 50.3883 46.874 49.957 46.874Z" fill="white"/>
<path d="M49.957 28.0977C49.5258 28.0977 49.1758 28.4469 49.1758 28.8789C49.1758 31.9055 42.8969 35.1461 33.5508 35.1461C24.2047 35.1461 17.9258 31.9055 17.9258 28.8789C17.9258 28.4469 17.5758 28.0977 17.1445 28.0977C16.7133 28.0977 16.3633 28.4469 16.3633 28.8789C16.3633 33.2695 23.9133 36.7086 33.5508 36.7086C43.1883 36.7086 50.7383 33.2695 50.7383 28.8789C50.7383 28.4469 50.3883 28.0977 49.957 28.0977Z" fill="white"/>
<path d="M49.957 32.7891C49.5258 32.7891 49.1758 33.1383 49.1758 33.5703C49.1758 36.5969 42.8969 39.8375 33.5508 39.8375C24.2047 39.8375 17.9258 36.5969 17.9258 33.5703C17.9258 33.1383 17.5758 32.7891 17.1445 32.7891C16.7133 32.7891 16.3633 33.1383 16.3633 33.5703C16.3633 37.9609 23.9133 41.4 33.5508 41.4C43.1883 41.4 50.7383 37.9609 50.7383 33.5703C50.7383 33.1383 50.3883 32.7891 49.957 32.7891Z" fill="white"/>
<path d="M49.957 51.5654C49.5258 51.5654 49.1758 51.9146 49.1758 52.3467C49.1758 55.3732 42.8969 58.6139 33.5508 58.6139C24.2047 58.6139 17.9258 55.3732 17.9258 52.3467C17.9258 51.9146 17.5758 51.5654 17.1445 51.5654C16.7133 51.5654 16.3633 51.9146 16.3633 52.3467C16.3633 56.7373 23.9133 60.1764 33.5508 60.1764C43.1883 60.1764 50.7383 56.7373 50.7383 52.3467C50.7383 51.9146 50.3883 51.5654 49.957 51.5654Z" fill="white"/>
<path d="M49.957 56.2568C49.5258 56.2568 49.1758 56.6061 49.1758 57.0381C49.1758 60.0646 42.8969 63.3053 33.5508 63.3053C24.2047 63.3053 17.9258 60.0646 17.9258 57.0381C17.9258 56.6061 17.5758 56.2568 17.1445 56.2568C16.7133 56.2568 16.3633 56.6061 16.3633 57.0381C16.3633 61.4287 23.9133 64.8678 33.5508 64.8678C43.1883 64.8678 50.7383 61.4287 50.7383 57.0381C50.7383 56.6061 50.3883 56.2568 49.957 56.2568Z" fill="white"/>
<path d="M49.957 60.9502C49.5258 60.9502 49.1758 61.2994 49.1758 61.7314C49.1758 64.758 42.8969 67.9978 33.5508 67.9978C24.2047 67.9978 17.9258 64.758 17.9258 61.7314C17.9258 61.2994 17.5758 60.9502 17.1445 60.9502C16.7133 60.9502 16.3633 61.2994 16.3633 61.7314C16.3633 66.1213 23.9133 69.5603 33.5508 69.5603C43.1883 69.5603 50.7383 66.1213 50.7383 61.7314C50.7383 61.2994 50.3883 60.9502 49.957 60.9502Z" fill="white"/>
<path d="M49.957 65.6416C49.5258 65.6416 49.1758 65.9908 49.1758 66.4229C49.1758 69.4494 42.8969 72.6893 33.5508 72.6893C24.2047 72.6893 17.9258 69.4494 17.9258 66.4229C17.9258 65.9908 17.5758 65.6416 17.1445 65.6416C16.7133 65.6416 16.3633 65.9908 16.3633 66.4229C16.3633 70.8127 23.9133 74.2518 33.5508 74.2518C43.1883 74.2518 50.7383 70.8127 50.7383 66.4229C50.7383 65.9908 50.3883 65.6416 49.957 65.6416Z" fill="white"/>
<path d="M49.957 70.334C49.5258 70.334 49.1758 70.6832 49.1758 71.1152C49.1758 74.1418 42.8969 77.3816 33.5508 77.3816C24.2047 77.3816 17.9258 74.1418 17.9258 71.1152C17.9258 70.6832 17.5758 70.334 17.1445 70.334C16.7133 70.334 16.3633 70.6832 16.3633 71.1152C16.3633 75.5051 23.9133 78.9441 33.5508 78.9441C43.1883 78.9441 50.7383 75.5043 50.7383 71.1152C50.7383 70.6832 50.3883 70.334 49.957 70.334Z" fill="white"/>
<path d="M49.957 75.0254C49.5258 75.0254 49.1758 75.3746 49.1758 75.8066C49.1758 78.8332 42.8969 82.0738 33.5508 82.0738C24.2047 82.0738 17.9258 78.8332 17.9258 75.8066C17.9258 75.3746 17.5758 75.0254 17.1445 75.0254C16.7133 75.0254 16.3633 75.3746 16.3633 75.8066C16.3633 80.1973 23.9133 83.6363 33.5508 83.6363C43.1883 83.6363 50.7383 80.1965 50.7383 75.8066C50.7383 75.3746 50.3883 75.0254 49.957 75.0254Z" fill="white"/>
<path d="M82.6846 39.0059C82.2533 39.0059 81.9033 39.3551 81.9033 39.7871C81.9033 42.8137 75.6244 46.0543 66.2783 46.0543C56.9322 46.0543 50.6533 42.8137 50.6533 39.7871C50.6533 39.3551 50.3033 39.0059 49.8721 39.0059C49.4408 39.0059 49.0908 39.3551 49.0908 39.7871C49.0908 44.1777 56.6408 47.6168 66.2783 47.6168C75.9158 47.6168 83.4658 44.177 83.4658 39.7871C83.4658 39.3551 83.1158 39.0059 82.6846 39.0059Z" fill="white"/>
<path d="M82.6846 43.6982C82.2533 43.6982 81.9033 44.0475 81.9033 44.4795C81.9033 47.5061 75.6244 50.7467 66.2783 50.7467C56.9322 50.7467 50.6533 47.5061 50.6533 44.4795C50.6533 44.0475 50.3033 43.6982 49.8721 43.6982C49.4408 43.6982 49.0908 44.0475 49.0908 44.4795C49.0908 48.8701 56.6408 52.3092 66.2783 52.3092C75.9158 52.3092 83.4658 48.8693 83.4658 44.4795C83.4658 44.0475 83.1158 43.6982 82.6846 43.6982Z" fill="white"/>
<path d="M82.6846 48.3896C82.2533 48.3896 81.9033 48.7389 81.9033 49.1709C81.9033 52.1975 75.6244 55.4381 66.2783 55.4381C56.9322 55.4381 50.6533 52.1975 50.6533 49.1709C50.6533 48.7389 50.3033 48.3896 49.8721 48.3896C49.4408 48.3896 49.0908 48.7389 49.0908 49.1709C49.0908 53.5615 56.6408 57.0006 66.2783 57.0006C75.9158 57.0006 83.4658 53.5615 83.4658 49.1709C83.4658 48.7389 83.1158 48.3896 82.6846 48.3896Z" fill="white"/>
<path d="M82.6846 53.0811C82.2533 53.0811 81.9033 53.4303 81.9033 53.8623C81.9033 56.8889 75.6244 60.1295 66.2783 60.1295C56.9322 60.1295 50.6533 56.8889 50.6533 53.8623C50.6533 53.4303 50.3033 53.0811 49.8721 53.0811C49.4408 53.0811 49.0908 53.4303 49.0908 53.8623C49.0908 58.2529 56.6408 61.692 66.2783 61.692C75.9158 61.692 83.4658 58.2529 83.4658 53.8623C83.4658 53.4303 83.1158 53.0811 82.6846 53.0811Z" fill="white"/>
<path d="M82.6846 57.7744C82.2533 57.7744 81.9033 58.1236 81.9033 58.5557C81.9033 61.5822 75.6244 64.8221 66.2783 64.8221C56.9322 64.8221 50.6533 61.5822 50.6533 58.5557C50.6533 58.1236 50.3033 57.7744 49.8721 57.7744C49.4408 57.7744 49.0908 58.1236 49.0908 58.5557C49.0908 62.9455 56.6408 66.3846 66.2783 66.3846C75.9158 66.3846 83.4658 62.9455 83.4658 58.5557C83.4658 58.1236 83.1158 57.7744 82.6846 57.7744Z" fill="white"/>
<path d="M82.6846 62.4658C82.2533 62.4658 81.9033 62.815 81.9033 63.2471C81.9033 66.2736 75.6244 69.5135 66.2783 69.5135C56.9322 69.5135 50.6533 66.2736 50.6533 63.2471C50.6533 62.815 50.3033 62.4658 49.8721 62.4658C49.4408 62.4658 49.0908 62.815 49.0908 63.2471C49.0908 67.6369 56.6408 71.076 66.2783 71.076C75.9158 71.076 83.4658 67.6369 83.4658 63.2471C83.4658 62.815 83.1158 62.4658 82.6846 62.4658Z" fill="white"/>
<path d="M82.6846 67.1582C82.2533 67.1582 81.9033 67.5074 81.9033 67.9395C81.9033 70.966 75.6244 74.2059 66.2783 74.2059C56.9322 74.2059 50.6533 70.966 50.6533 67.9395C50.6533 67.5074 50.3033 67.1582 49.8721 67.1582C49.4408 67.1582 49.0908 67.5074 49.0908 67.9395C49.0908 72.3293 56.6408 75.7684 66.2783 75.7684C75.9158 75.7684 83.4658 72.3285 83.4658 67.9395C83.4658 67.5074 83.1158 67.1582 82.6846 67.1582Z" fill="white"/>
<path d="M82.6846 71.8506C82.2533 71.8506 81.9033 72.1998 81.9033 72.6318C81.9033 75.6584 75.6244 78.899 66.2783 78.899C56.9322 78.899 50.6533 75.6584 50.6533 72.6318C50.6533 72.1998 50.3033 71.8506 49.8721 71.8506C49.4408 71.8506 49.0908 72.1998 49.0908 72.6318C49.0908 77.0225 56.6408 80.4615 66.2783 80.4615C75.9158 80.4615 83.4658 77.0217 83.4658 72.6318C83.4658 72.1998 83.1158 71.8506 82.6846 71.8506Z" fill="white"/>
<path d="M66.2783 27.2725C56.6408 27.2725 49.0908 30.7115 49.0908 35.1021C49.0908 39.4928 56.6408 42.9318 66.2783 42.9318C75.9158 42.9318 83.4658 39.4928 83.4658 35.1021C83.4658 30.7115 75.9158 27.2725 66.2783 27.2725ZM66.2783 41.3686C56.9322 41.3686 50.6533 38.1279 50.6533 35.1014C50.6533 32.0748 56.9322 28.8342 66.2783 28.8342C75.6244 28.8342 81.9033 32.0748 81.9033 35.1014C81.9033 38.1279 75.6244 41.3686 66.2783 41.3686Z" fill="white"/>
<path d="M33.5508 16.3633C23.9133 16.3633 16.3633 19.8023 16.3633 24.1938C16.3633 28.5836 23.9133 32.0227 33.5508 32.0227C43.1883 32.0227 50.7383 28.5836 50.7383 24.1938C50.7383 19.8023 43.1883 16.3633 33.5508 16.3633ZM33.5508 30.4594C24.2047 30.4594 17.9258 27.2195 17.9258 24.193C17.9258 21.1656 24.2047 17.925 33.5508 17.925C42.8969 17.925 49.1758 21.1664 49.1758 24.193C49.1758 27.2195 42.8969 30.4594 33.5508 30.4594Z" fill="white"/>
</svg>
