<svg width="100" height="100" viewBox="0 0 100 100" fill="none" xmlns="http://www.w3.org/2000/svg">
<path d="M87.5 22.9167C87.5 17.1637 82.8363 12.5 77.0833 12.5H52.0833C51.5308 12.5 51.0009 12.7195 50.6102 13.1102L16.0146 47.7058C11.2958 52.4246 11.2958 60.0754 16.0146 64.7942L35.2058 83.9854C39.9246 88.7042 47.5754 88.7042 52.2942 83.9854L86.8898 49.3898C87.2805 48.9991 87.5 48.4692 87.5 47.9167V22.9167ZM52.9463 16.6667H77.0833C80.5351 16.6667 83.3333 19.4649 83.3333 22.9167V47.0537L49.3479 81.0391C46.2563 84.1308 41.2437 84.1308 38.1521 81.0391L18.9609 61.8479C15.8692 58.7563 15.8692 53.7437 18.9609 50.6521L52.9463 16.6667ZM66.6667 29.1667C68.9679 29.1667 70.8333 31.0321 70.8333 33.3333C70.8333 35.6345 68.9679 37.5 66.6667 37.5C64.3655 37.5 62.5 35.6345 62.5 33.3333C62.5 31.0321 64.3655 29.1667 66.6667 29.1667ZM66.6667 25C62.0643 25 58.3333 28.731 58.3333 33.3333C58.3333 37.9357 62.0643 41.6667 66.6667 41.6667C71.269 41.6667 75 37.9357 75 33.3333C75 28.731 71.269 25 66.6667 25Z" fill="white"/>
</svg>
