<svg width="20" height="20" viewBox="0 0 20 20" fill="none" xmlns="http://www.w3.org/2000/svg">
<path d="M13.5622 17.8669H6.43717C5.91227 17.8669 5.40886 17.6584 5.03769 17.2872C4.66653 16.916 4.45801 16.4126 4.45801 15.8877V4.11247C4.45801 3.58756 4.66653 3.08415 5.03769 2.71299C5.40886 2.34182 5.91227 2.1333 6.43717 2.1333H13.5622C14.0871 2.1333 14.5905 2.34182 14.9617 2.71299C15.3328 3.08415 15.5413 3.58756 15.5413 4.11247V15.8877C15.5413 16.4126 15.3328 16.916 14.9617 17.2872C14.5905 17.6584 14.0871 17.8669 13.5622 17.8669ZM6.43717 2.92497C6.12223 2.92497 5.82018 3.05008 5.59748 3.27278C5.37479 3.49548 5.24967 3.79752 5.24967 4.11247V15.8877C5.24967 16.2027 5.37479 16.5047 5.59748 16.7274C5.82018 16.9501 6.12223 17.0752 6.43717 17.0752H13.5622C13.8771 17.0752 14.1792 16.9501 14.4019 16.7274C14.6246 16.5047 14.7497 16.2027 14.7497 15.8877V4.11247C14.7497 3.79752 14.6246 3.49548 14.4019 3.27278C14.1792 3.05008 13.8771 2.92497 13.5622 2.92497H6.43717Z" fill="white"/>
<path d="M11.9788 8.22438H8.02051C7.70556 8.22438 7.40352 8.09927 7.18082 7.87657C6.95812 7.65387 6.83301 7.35183 6.83301 7.03688V5.6958C6.83301 5.38086 6.95812 5.07881 7.18082 4.85611C7.40352 4.63341 7.70556 4.5083 8.02051 4.5083H11.9788C12.2938 4.5083 12.5958 4.63341 12.8185 4.85611C13.0412 5.07881 13.1663 5.38086 13.1663 5.6958V7.03688C13.1663 7.35183 13.0412 7.65387 12.8185 7.87657C12.5958 8.09927 12.2938 8.22438 11.9788 8.22438ZM8.02051 5.29997C7.91553 5.29997 7.81484 5.34167 7.74061 5.4159C7.66638 5.49014 7.62467 5.59082 7.62467 5.6958V7.03688C7.62467 7.14187 7.66638 7.24255 7.74061 7.31678C7.81484 7.39101 7.91553 7.43272 8.02051 7.43272H11.9788C12.0838 7.43272 12.1845 7.39101 12.2587 7.31678C12.333 7.24255 12.3747 7.14187 12.3747 7.03688V5.6958C12.3747 5.59082 12.333 5.49014 12.2587 5.4159C12.1845 5.34167 12.0838 5.29997 11.9788 5.29997H8.02051Z" fill="white"/>
<path d="M10 10.2041C10.3279 10.2041 10.5938 9.93827 10.5938 9.61035C10.5938 9.28243 10.3279 9.0166 10 9.0166C9.67208 9.0166 9.40625 9.28243 9.40625 9.61035C9.40625 9.93827 9.67208 10.2041 10 10.2041Z" fill="white"/>
<path d="M12.5723 10.2041C12.9002 10.2041 13.166 9.93827 13.166 9.61035C13.166 9.28243 12.9002 9.0166 12.5723 9.0166C12.2443 9.0166 11.9785 9.28243 11.9785 9.61035C11.9785 9.93827 12.2443 10.2041 12.5723 10.2041Z" fill="white"/>
<path d="M7.42676 10.2041C7.75468 10.2041 8.02051 9.93827 8.02051 9.61035C8.02051 9.28243 7.75468 9.0166 7.42676 9.0166C7.09884 9.0166 6.83301 9.28243 6.83301 9.61035C6.83301 9.93827 7.09884 10.2041 7.42676 10.2041Z" fill="white"/>
<path d="M10 12.8486C10.3279 12.8486 10.5938 12.5828 10.5938 12.2549C10.5938 11.927 10.3279 11.6611 10 11.6611C9.67208 11.6611 9.40625 11.927 9.40625 12.2549C9.40625 12.5828 9.67208 12.8486 10 12.8486Z" fill="white"/>
<path d="M12.5723 12.8486C12.9002 12.8486 13.166 12.5828 13.166 12.2549C13.166 11.927 12.9002 11.6611 12.5723 11.6611C12.2443 11.6611 11.9785 11.927 11.9785 12.2549C11.9785 12.5828 12.2443 12.8486 12.5723 12.8486Z" fill="white"/>
<path d="M7.42676 12.8486C7.75468 12.8486 8.02051 12.5828 8.02051 12.2549C8.02051 11.927 7.75468 11.6611 7.42676 11.6611C7.09884 11.6611 6.83301 11.927 6.83301 12.2549C6.83301 12.5828 7.09884 12.8486 7.42676 12.8486Z" fill="white"/>
<path d="M12.5723 15.4917C12.9002 15.4917 13.166 15.2259 13.166 14.8979C13.166 14.57 12.9002 14.3042 12.5723 14.3042C12.2443 14.3042 11.9785 14.57 11.9785 14.8979C11.9785 15.2259 12.2443 15.4917 12.5723 15.4917Z" fill="white"/>
<path d="M10.196 15.2936H7.22884C7.12386 15.2936 7.02318 15.2519 6.94894 15.1777C6.87471 15.1035 6.83301 15.0028 6.83301 14.8978C6.83301 14.7928 6.87471 14.6921 6.94894 14.6179C7.02318 14.5437 7.12386 14.502 7.22884 14.502H10.1928C10.2978 14.502 10.3985 14.5437 10.4727 14.6179C10.547 14.6921 10.5887 14.7928 10.5887 14.8978C10.5887 15.0028 10.547 15.1035 10.4727 15.1777C10.3985 15.2519 10.2978 15.2936 10.1928 15.2936H10.196Z" fill="white"/>
</svg>
