<svg width="22" height="22" viewBox="0 0 22 22" fill="none" xmlns="http://www.w3.org/2000/svg">
<g clip-path="url(#clip0_82_475)">
<path fill-rule="evenodd" clip-rule="evenodd" d="M20.9961 8.04077C21.6794 8.5607 22.0798 9.36954 22.0798 10.2282V19.3298C22.0798 20.8486 20.8486 22.0798 19.3298 22.0798H4.66309C3.14431 22.0798 1.91309 20.8486 1.91309 19.3298V10.2282C1.91309 9.36954 2.31344 8.5607 2.99681 8.04077C4.99986 6.51678 9.18349 3.33529 10.3464 2.46309C11.3242 1.72975 12.6686 1.72975 13.6464 2.46309C14.8093 3.33528 18.993 6.51678 20.9961 8.04077ZM3.74642 10.3178L10.2924 15.4857C11.2915 16.2745 12.7013 16.2745 13.7004 15.4857L20.2464 10.3178V19.3298C20.2464 19.836 19.836 20.2464 19.3298 20.2464H4.66309C4.15683 20.2464 3.74642 19.836 3.74642 19.3298V10.3178ZM12.5464 3.92975L19.1274 8.86548L12.5644 14.0467C12.2314 14.3097 11.7615 14.3097 11.4285 14.0467L4.86546 8.86548L11.4464 3.92975C11.7724 3.68531 12.2205 3.68531 12.5464 3.92975Z" fill="white" fill-opacity="0.4"/>
</g>
<defs>
<clipPath id="clip0_82_475">
<rect width="22" height="22" fill="white"/>
</clipPath>
</defs>
</svg>
