<svg width="18" height="16" viewBox="0 0 18 16" fill="none" xmlns="http://www.w3.org/2000/svg">
<path d="M1.79346 6.65576C1.24117 6.65576 0.793457 7.10348 0.793457 7.65576C0.793457 8.20805 1.24117 8.65576 1.79346 8.65576V6.65576ZM17.439 8.36287C17.8295 7.97234 17.8295 7.33918 17.439 6.94865L11.075 0.584694C10.6845 0.19417 10.0513 0.19417 9.66081 0.584694C9.27028 0.975218 9.27028 1.60838 9.66081 1.99891L15.3177 7.65576L9.66081 13.3126C9.27028 13.7031 9.27028 14.3363 9.66081 14.7268C10.0513 15.1174 10.6845 15.1174 11.075 14.7268L17.439 8.36287ZM1.79346 7.65576V8.65576H16.7319V7.65576V6.65576H1.79346V7.65576Z" fill="white"/>
</svg>
