<svg width="20" height="19" viewBox="0 0 20 19" fill="none" xmlns="http://www.w3.org/2000/svg">
<g clip-path="url(#clip0_184_711)">
<path fill-rule="evenodd" clip-rule="evenodd" d="M2.48268 0.793492C3.70002 -0.416929 5.70439 -0.201474 6.7237 1.16011L7.98469 2.84451C8.81408 3.9524 8.7409 5.50081 7.75639 6.47972L7.51762 6.71714C7.50719 6.74743 7.4819 6.84264 7.50997 7.02359C7.57319 7.43109 7.91347 8.29549 9.34199 9.7159C10.77 11.1358 11.6405 11.4758 12.0538 11.5391C12.2411 11.5679 12.3391 11.5411 12.3694 11.5305L12.7774 11.1248C13.6526 10.2546 14.9975 10.0919 16.0811 10.681L17.9916 11.7196C19.6275 12.6089 20.0409 14.8326 18.7005 16.1653L17.28 17.5778C16.8324 18.0228 16.2305 18.3939 15.4959 18.4624C13.6869 18.631 9.4687 18.4158 5.03659 14.0089C0.898678 9.89448 0.104617 6.30649 0.00414753 4.53866L0.752939 4.49611L0.00414747 4.53866C-0.0466542 3.64475 0.375763 2.88845 0.913083 2.35418L2.48268 0.793492ZM5.52291 2.05905C5.01628 1.38231 4.072 1.3285 3.54032 1.85717L1.97072 3.41786C1.6408 3.7459 1.48206 4.10744 1.50173 4.45355C1.58156 5.85815 2.22286 9.09583 6.09423 12.9452C10.1557 16.9836 13.9069 17.104 15.3567 16.9689C15.6529 16.9413 15.9475 16.7874 16.2224 16.5141L17.6429 15.1016C18.2204 14.5275 18.093 13.482 17.2752 13.0374L15.3647 11.9988C14.8371 11.7121 14.219 11.8067 13.835 12.1885L13.3796 12.6414L12.8508 12.1095C13.3796 12.6414 13.3789 12.6421 13.3782 12.6428L13.3767 12.6442L13.3736 12.6472L13.3671 12.6535L13.3525 12.6671C13.342 12.6767 13.3299 12.6872 13.3164 12.6984C13.2892 12.7209 13.2558 12.7464 13.2159 12.7732C13.1358 12.8268 13.0301 12.8851 12.8972 12.9346C12.6264 13.0355 12.2692 13.0897 11.8264 13.0218C10.9596 12.8888 9.81135 12.2979 8.28436 10.7796C6.75787 9.26176 6.16194 8.11883 6.0277 7.25355C5.95906 6.8111 6.01381 6.4538 6.11594 6.18274C6.16599 6.0499 6.22497 5.94427 6.2791 5.86438C6.3061 5.82454 6.33179 5.79123 6.35446 5.76417C6.3658 5.75064 6.3764 5.73866 6.38604 5.72819L6.39977 5.7136L6.40606 5.70714L6.40905 5.70412L6.41051 5.70266C6.41122 5.70194 6.41194 5.70123 6.94076 6.23307L6.41194 5.70123L6.69875 5.41605C7.12735 4.98988 7.18739 4.28243 6.7839 3.74346L5.52291 2.05905Z" fill="#1E3773"/>
</g>
<defs>
<clipPath id="clip0_184_711">
<rect width="20" height="19" fill="white"/>
</clipPath>
</defs>
</svg>
