<svg width="22" height="22" viewBox="0 0 22 22" fill="none" xmlns="http://www.w3.org/2000/svg">
<path fill-rule="evenodd" clip-rule="evenodd" d="M3.48268 2.79349C4.70002 1.58307 6.70439 1.79853 7.7237 3.16011L8.98469 4.84451C9.81408 5.9524 9.7409 7.50081 8.75639 8.47972L8.51762 8.71714C8.50719 8.74743 8.4819 8.84264 8.50997 9.02359C8.57319 9.43109 8.91347 10.2955 10.342 11.7159C11.77 13.1358 12.6405 13.4758 13.0538 13.5391C13.2411 13.5679 13.3391 13.5411 13.3694 13.5305L13.7774 13.1248C14.6526 12.2546 15.9975 12.0919 17.0811 12.681L18.9916 13.7196C20.6275 14.6089 21.0409 16.8326 19.7005 18.1653L18.28 19.5778C17.8324 20.0228 17.2305 20.3939 16.4959 20.4624C14.6869 20.631 10.4687 20.4158 6.03659 16.0089C1.89868 11.8945 1.10462 8.30649 1.00415 6.53866L1.75294 6.49611L1.00415 6.53866C0.953346 5.64475 1.37576 4.88845 1.91308 4.35418L3.48268 2.79349ZM6.52291 4.05905C6.01628 3.38231 5.072 3.3285 4.54032 3.85717L2.97072 5.41786C2.6408 5.7459 2.48206 6.10744 2.50173 6.45355C2.58156 7.85815 3.22286 11.0958 7.09423 14.9452C11.1557 18.9836 14.9069 19.104 16.3567 18.9689C16.6529 18.9413 16.9475 18.7874 17.2224 18.5141L18.6429 17.1016C19.2204 16.5275 19.093 15.482 18.2752 15.0374L16.3647 13.9988C15.8371 13.7121 15.219 13.8067 14.835 14.1885L14.3796 14.6414L13.8508 14.1095C14.3796 14.6414 14.3789 14.6421 14.3782 14.6428L14.3767 14.6442L14.3736 14.6472L14.3671 14.6535L14.3525 14.6671C14.342 14.6767 14.3299 14.6872 14.3164 14.6984C14.2892 14.7209 14.2558 14.7464 14.2159 14.7732C14.1358 14.8268 14.0301 14.8851 13.8972 14.9346C13.6264 15.0355 13.2692 15.0897 12.8264 15.0218C11.9596 14.8888 10.8114 14.2979 9.28436 12.7796C7.75787 11.2618 7.16194 10.1188 7.0277 9.25355C6.95906 8.8111 7.01381 8.4538 7.11594 8.18274C7.16599 8.0499 7.22497 7.94427 7.2791 7.86438C7.3061 7.82454 7.33179 7.79123 7.35446 7.76417C7.3658 7.75064 7.3764 7.73866 7.38604 7.72819L7.39977 7.7136L7.40606 7.70714L7.40905 7.70412L7.41051 7.70266C7.41122 7.70194 7.41194 7.70123 7.94076 8.23307L7.41194 7.70123L7.69875 7.41605C8.12735 6.98988 8.18739 6.28243 7.7839 5.74346L6.52291 4.05905Z" fill="white" fill-opacity="0.4"/>
</svg>
