<svg width="39" height="39" viewBox="0 0 39 39" fill="none" xmlns="http://www.w3.org/2000/svg">
<path d="M30.8341 29.3513C28.731 31.7705 25.9096 33.4541 22.7818 34.1561C19.6541 34.8581 16.3838 34.5418 13.4486 33.2534C10.5134 31.9647 8.06702 29.7713 6.46679 26.9937C4.86655 24.216 4.19624 20.9995 4.55375 17.8138C4.91098 14.6279 6.27748 11.6396 8.45367 9.28544C10.6299 6.93128 13.5017 5.33457 16.6498 4.72852M22.3434 4.7407C24.4575 5.14784 26.4594 6.00436 28.2137 7.25229C29.968 8.50022 31.4338 10.1104 32.5119 11.974C33.59 13.8376 34.2552 15.911 34.4625 18.054C34.6698 20.1969 34.4143 22.3594 33.7134 24.3951" stroke="white" stroke-opacity="0.7" stroke-width="2" stroke-linecap="round"/>
<path d="M16.25 18.6875V15.7828C16.25 14.0215 17.705 12.5938 19.5 12.5938C21.295 12.5938 22.75 14.0215 22.75 15.7828V18.6875M15.4375 18.6875H23.5625C24.4627 18.6875 25.1875 19.4122 25.1875 20.3125V24.7812C25.1875 25.6815 24.4627 26.4062 23.5625 26.4062H15.4375C14.5372 26.4062 13.8125 25.6815 13.8125 24.7812V20.3125C13.8125 19.4122 14.5372 18.6875 15.4375 18.6875Z" stroke="white" stroke-opacity="0.7" stroke-width="2"/>
</svg>
