<svg width="25" height="25" viewBox="0 0 25 25" fill="none" xmlns="http://www.w3.org/2000/svg">
<path d="M11.4549 1.60262C11.775 0.675453 11.9351 0.211885 12.1719 0.0834027C12.3767 -0.0278009 12.6233 -0.0278009 12.8283 0.0834027C13.0649 0.211885 13.2249 0.675453 13.5451 1.60262L15.6617 7.7321C15.7528 7.99598 15.7983 8.12792 15.8805 8.22617C15.9529 8.31297 16.0455 8.38062 16.1499 8.42323C16.268 8.47147 16.4067 8.47431 16.6842 8.48001L23.1291 8.61222C24.104 8.63221 24.5914 8.64222 24.786 8.82914C24.9543 8.99091 25.0305 9.22709 24.9888 9.45759C24.9406 9.72395 24.5521 10.0204 23.7751 10.6135L18.6382 14.5338C18.417 14.7027 18.3065 14.7871 18.239 14.896C18.1794 14.9923 18.1442 15.1017 18.1361 15.2148C18.1271 15.3429 18.1672 15.4765 18.2476 15.744L20.1144 21.9552C20.3966 22.8948 20.5379 23.3645 20.4214 23.6085C20.3206 23.8197 20.121 23.9656 19.8903 23.9969C19.6238 24.033 19.2236 23.7527 18.4233 23.192L13.132 19.4856C12.9042 19.326 12.7904 19.2462 12.6666 19.2152C12.5572 19.1879 12.4428 19.1879 12.3335 19.2152C12.2097 19.2462 12.0958 19.326 11.868 19.4856L6.57679 23.192C5.77643 23.7527 5.37624 24.033 5.10972 23.9969C4.87907 23.9656 4.67949 23.8197 4.57867 23.6085C4.46219 23.3645 4.60338 22.8948 4.88573 21.9552L6.75241 15.744C6.83277 15.4765 6.87295 15.3429 6.8639 15.2148C6.85591 15.1017 6.82059 14.9923 6.76099 14.896C6.69354 14.7871 6.58296 14.7027 6.36182 14.5338L1.22498 10.6135C0.447967 10.0204 0.0594582 9.72395 0.0112301 9.45759C-0.0305253 9.22709 0.0457105 8.99091 0.214073 8.82914C0.40859 8.64222 0.896031 8.63223 1.8709 8.61222L8.31581 8.48001C8.59326 8.47431 8.732 8.47147 8.85019 8.42323C8.9546 8.38062 9.0471 8.31297 9.11962 8.22617C9.20172 8.12792 9.24728 7.99598 9.3384 7.7321L11.4549 1.60262Z" fill="#D42020"/>
</svg>
