<svg width="28" height="26" viewBox="0 0 28 26" fill="none" xmlns="http://www.w3.org/2000/svg">
<g clip-path="url(#clip0_188_157)">
<path d="M27.3673 0.617651C27.1477 0.427953 26.8805 0.301981 26.5944 0.253396C26.3084 0.20481 26.0145 0.235466 25.7446 0.342038L1.23312 9.97159C0.912695 10.0975 0.641647 10.3237 0.460534 10.6165C0.279421 10.9093 0.197982 11.2528 0.228404 11.5957C0.258826 11.9386 0.399473 12.2625 0.629299 12.5188C0.859124 12.7751 1.16577 12.9501 1.50335 13.0176L8.15649 14.3483V22.5605C8.15316 22.8764 8.2453 23.186 8.42085 23.4487C8.59639 23.7114 8.84716 23.915 9.14033 24.0329C9.33673 24.1151 9.54744 24.1577 9.76036 24.1583C9.96842 24.1576 10.1743 24.1157 10.366 24.0348C10.5577 23.954 10.7315 23.8359 10.8772 23.6873L14.6751 19.8894L20.2789 24.8208C20.5677 25.0772 20.9404 25.2191 21.3266 25.2195C21.4945 25.2193 21.6613 25.1928 21.821 25.141C22.0844 25.0575 22.3213 24.9064 22.508 24.7027C22.6948 24.499 22.8248 24.25 22.8853 23.9803L27.8808 2.18144C27.9461 1.89873 27.9327 1.60357 27.8422 1.32792C27.7516 1.05227 27.5874 0.806648 27.3673 0.617651ZM1.28675 11.5018C1.27354 11.387 1.29941 11.2712 1.36019 11.1729C1.42097 11.0747 1.51311 10.9998 1.6217 10.9604L24.0903 2.13342L8.56453 13.3464L1.71171 11.9758C1.59788 11.9562 1.49401 11.8986 1.4169 11.8126C1.33978 11.7266 1.29393 11.6171 1.28675 11.5018ZM10.1258 22.9361C10.0516 23.0104 9.95691 23.061 9.85386 23.0815C9.75081 23.102 9.644 23.0915 9.54693 23.0513C9.44986 23.0111 9.36689 22.943 9.30852 22.8556C9.25015 22.7683 9.21899 22.6656 9.21899 22.5605V15.088L13.8759 19.1861L10.1258 22.9361ZM26.8452 1.94409L21.8496 23.743C21.829 23.8327 21.7855 23.9155 21.7233 23.9833C21.6611 24.0511 21.5824 24.1017 21.4948 24.1299C21.4072 24.1581 21.3138 24.1631 21.2237 24.1444C21.1336 24.1257 21.0499 24.0839 20.9808 24.0231L9.53844 13.9538L26.7593 1.51654C26.8046 1.57688 26.8359 1.6466 26.8507 1.72058C26.8656 1.79456 26.8637 1.87093 26.8452 1.94409Z" fill="#039BE5"/>
</g>
<defs>
<clipPath id="clip0_188_157">
<rect width="28" height="26" fill="white"/>
</clipPath>
</defs>
</svg>
