<svg width="26" height="26" viewBox="0 0 26 26" fill="none" xmlns="http://www.w3.org/2000/svg">
<g clip-path="url(#clip0_188_160)">
<path d="M0.672363 25.3275L2.41243 19.0024C1.34326 17.1468 0.781783 15.0424 0.784532 12.9008C0.772155 6.15258 6.25237 0.672363 12.9876 0.672363C16.2565 0.672363 19.3259 1.93971 21.6369 4.25155C22.7761 5.38478 23.679 6.7328 24.2934 8.21751C24.9078 9.70222 25.2214 11.2941 25.2161 12.9008C25.2161 19.6361 19.7359 25.1164 13 25.1164C10.9496 25.1164 8.94878 24.6065 7.15919 23.6253L0.672363 25.3275ZM7.44544 21.4257L7.81836 21.6492C9.38364 22.5755 11.1688 23.0647 12.9876 23.0659C18.5799 23.0659 23.141 18.5057 23.141 12.9125C23.141 10.2038 22.0849 7.64428 20.1707 5.73087C19.2295 4.78427 18.1101 4.03331 16.8773 3.52128C15.6445 3.00924 14.3225 2.74626 12.9876 2.74748C7.3828 2.74821 2.82323 7.3085 2.82323 12.9016C2.82323 14.8151 3.35784 16.6921 4.37683 18.3076L4.61282 18.6928L3.58145 22.4453L7.44544 21.4257Z" fill="#1ECD6F"/>
<path fill-rule="evenodd" clip-rule="evenodd" d="M9.94281 7.7812C9.7192 7.27135 9.47083 7.25896 9.25961 7.25896C9.07314 7.24658 8.87357 7.24658 8.66235 7.24658C8.46423 7.24658 8.12845 7.32088 7.84293 7.63188C7.55669 7.94217 6.77441 8.67563 6.77441 10.179C6.77441 11.6831 7.8677 13.1369 8.01701 13.3357C8.16559 13.5346 10.1293 16.7154 13.2364 17.9463C15.8207 18.9653 16.343 18.7664 16.9023 18.7038C17.461 18.6419 18.7043 17.971 18.9651 17.25C19.2135 16.542 19.2135 15.9207 19.1391 15.7961C19.0648 15.6723 18.8529 15.5972 18.5551 15.4356C18.244 15.287 16.753 14.5411 16.4675 14.4414C16.1813 14.3423 15.9824 14.2927 15.7836 14.5907C15.5847 14.9017 15.0005 15.5849 14.8149 15.7838C14.6401 15.9826 14.4543 16.0074 14.1557 15.8581C13.8454 15.7094 12.8635 15.3861 11.6953 14.3423C10.7877 13.5338 10.1788 12.5279 9.99233 12.2301C9.81898 11.9191 9.96757 11.7573 10.1293 11.608C10.2662 11.4718 10.4403 11.2482 10.5896 11.0741C10.7381 10.8993 10.7877 10.7631 10.8999 10.5643C10.999 10.3654 10.9494 10.179 10.8751 10.0304C10.8001 9.89346 10.2167 8.39011 9.94281 7.7812Z" fill="#1ECD6F"/>
</g>
<defs>
<clipPath id="clip0_188_160">
<rect width="26" height="26" fill="white"/>
</clipPath>
</defs>
</svg>
