<svg width="35" height="35" viewBox="0 0 35 35" fill="none" xmlns="http://www.w3.org/2000/svg">
<path d="M5.83333 17.5H4.375V11.6667C4.375 10.0558 5.68084 8.75 7.29167 8.75H13.125M5.83333 17.5V26.25C5.83333 27.8609 7.13917 29.1667 8.75 29.1667H26.25C27.8609 29.1667 29.1667 27.8609 29.1667 26.25V17.5M5.83333 17.5H14.5833M13.125 8.75V7.29167C13.125 5.68084 14.4308 4.375 16.0417 4.375H18.9583C20.5692 4.375 21.875 5.68084 21.875 7.29167V8.75M13.125 8.75H21.875M29.1667 17.5H30.625V11.6667C30.625 10.0558 29.3192 8.75 27.7083 8.75H21.875M29.1667 17.5H20.4167M14.5833 17.5V14.5833H20.4167V17.5M14.5833 17.5V20.4167H20.4167V17.5" stroke="white" stroke-width="2" stroke-linecap="round" stroke-linejoin="round"/>
</svg>
