<svg width="35" height="35" viewBox="0 0 35 35" fill="none" xmlns="http://www.w3.org/2000/svg">
<path d="M23.3337 23.3333V9.04167C23.3337 7.40819 23.3337 6.59143 23.0157 5.96753C22.7362 5.41871 22.2899 4.97252 21.7412 4.6929C21.1173 4.375 20.3005 4.375 18.667 4.375H7.58366C5.95018 4.375 5.13343 4.375 4.50952 4.6929C3.96071 4.97252 3.51451 5.41871 3.23489 5.96753C2.91699 6.59143 2.91699 7.40819 2.91699 9.04167V18.6667C2.91699 20.3001 2.91699 21.117 3.23489 21.7408C3.51451 22.2896 3.96071 22.7359 4.50952 23.0154C5.13343 23.3333 5.95018 23.3333 7.58366 23.3333H23.3337ZM23.3337 23.3333H29.7503C30.5671 23.3333 30.9755 23.3333 31.2874 23.1744C31.5619 23.0345 31.7848 22.8115 31.9247 22.5371C32.0837 22.2251 32.0837 21.8168 32.0837 21V17.0081C32.0837 16.6515 32.0837 16.4732 32.0434 16.3053C32.0077 16.1564 31.9488 16.0143 31.8687 15.8837C31.7786 15.7366 31.6524 15.6104 31.4003 15.3583L28.392 12.3501C28.1399 12.0979 28.0137 11.9717 27.8666 11.8816C27.7361 11.8016 27.5939 11.7427 27.445 11.707C27.2771 11.6667 27.0988 11.6667 26.7422 11.6667H23.3337M13.1253 26.9792C13.1253 28.9927 11.493 30.625 9.47949 30.625C7.46596 30.625 5.83366 28.9927 5.83366 26.9792C5.83366 24.9656 7.46596 23.3333 9.47949 23.3333C11.493 23.3333 13.1253 24.9656 13.1253 26.9792ZM29.167 26.9792C29.167 28.9927 27.5347 30.625 25.5212 30.625C23.5076 30.625 21.8753 28.9927 21.8753 26.9792C21.8753 24.9656 23.5076 23.3333 25.5212 23.3333C27.5347 23.3333 29.167 24.9656 29.167 26.9792Z" stroke="white" stroke-width="2" stroke-linecap="round" stroke-linejoin="round"/>
</svg>
