<svg width="35" height="35" viewBox="0 0 35 35" fill="none" xmlns="http://www.w3.org/2000/svg">
<path d="M2.91699 8.74984C2.91699 6.70798 2.91699 5.68705 3.31436 4.90716C3.66391 4.22116 4.22165 3.66342 4.90765 3.31387C5.68753 2.9165 6.70847 2.9165 8.75033 2.9165C10.7922 2.9165 11.8131 2.9165 12.593 3.31387C13.279 3.66342 13.8367 4.22116 14.1863 4.90716C14.5837 5.68705 14.5837 6.70798 14.5837 8.74984V26.2498C14.5837 28.2916 14.5837 29.3126 14.1863 30.0925C13.8367 30.7785 13.279 31.3362 12.593 31.6858C11.8131 32.0832 10.7922 32.0832 8.75033 32.0832C6.70847 32.0832 5.68753 32.0832 4.90765 31.6858C4.22165 31.3362 3.66391 30.7785 3.31436 30.0925C2.91699 29.3126 2.91699 28.2916 2.91699 26.2498V8.74984Z" stroke="white" stroke-width="2"/>
<path d="M10.2087 27.7085H7.29199" stroke="white" stroke-width="2" stroke-linecap="round"/>
<path d="M19.4155 7.18836L16.2916 10.3122C15.4485 11.1553 15.0271 11.5768 14.805 12.1128C14.583 12.6488 14.583 13.2449 14.583 14.437V28.52L27.665 15.438C29.1089 13.9941 29.8308 13.2722 30.1013 12.4398C30.3391 11.7075 30.3391 10.9188 30.1013 10.1865C29.8308 9.35408 29.1089 8.63217 27.665 7.18836C26.2212 5.74456 25.4994 5.02265 24.6668 4.75218C23.9346 4.51425 23.1459 4.51425 22.4135 4.75218C21.5811 5.02265 20.8592 5.74456 19.4155 7.18836Z" stroke="white" stroke-width="2"/>
<path d="M8.75 32.0832H26.25C28.2918 32.0832 29.3128 32.0832 30.0927 31.6858C30.7787 31.3362 31.3364 30.7785 31.6859 30.0925C32.0833 29.3126 32.0833 28.2916 32.0833 26.2498C32.0833 24.208 32.0833 23.187 31.6859 22.4071C31.3364 21.7211 30.7787 21.1635 30.0927 20.8139C29.3128 20.4165 28.2918 20.4165 26.25 20.4165H22.6042" stroke="white" stroke-width="2"/>
</svg>
