<svg width="35" height="35" viewBox="0 0 35 35" fill="none" xmlns="http://www.w3.org/2000/svg">
<path d="M13.1247 17.5L16.0413 20.4166L21.8747 14.5833M29.1663 17.5C29.1663 24.0057 21.2038 28.7199 18.435 30.1627C18.1357 30.3187 17.9859 30.3967 17.7782 30.4371C17.6163 30.4686 17.383 30.4686 17.2211 30.4371C17.0135 30.3967 16.8637 30.3187 16.5643 30.1627C13.7954 28.7199 5.83301 24.0057 5.83301 17.5V11.9839C5.83301 10.818 5.83301 10.235 6.0237 9.7339C6.19215 9.29119 6.4659 8.89619 6.82126 8.58301C7.22353 8.22851 7.76938 8.02381 8.86109 7.61442L16.6804 4.68219C16.9836 4.5685 17.1351 4.51165 17.2911 4.48911C17.4294 4.46913 17.57 4.46913 17.7082 4.48911C17.8643 4.51165 18.0158 4.5685 18.319 4.68219L26.1383 7.61442C27.23 8.02381 27.7758 8.22851 28.178 8.58301C28.5334 8.89619 28.8072 9.29119 28.9756 9.7339C29.1663 10.235 29.1663 10.818 29.1663 11.9839V17.5Z" stroke="white" stroke-width="2" stroke-linecap="round" stroke-linejoin="round"/>
</svg>
